<svg width="3992" height="2509" xmlns="http://www.w3.org/2000/svg" xmlns:xlink="http://www.w3.org/1999/xlink" overflow="hidden"><defs><clipPath id="clip0"><rect x="145" y="21" width="3992" height="2509"/></clipPath><linearGradient x1="2085.92" y1="1489.56" x2="2143.47" y2="1455.55" gradientUnits="userSpaceOnUse" spreadMethod="pad" id="fill1"><stop offset="0" stop-color="#909CA9"/><stop offset="1" stop-color="#EDEDEE"/></linearGradient><linearGradient x1="2088.19" y1="362.987" x2="2134.5" y2="362.987" gradientUnits="userSpaceOnUse" spreadMethod="pad" id="fill2"><stop offset="0" stop-color="#939FAB"/><stop offset="1" stop-color="#DCDEE1"/></linearGradient><radialGradient cx="-9757.83" cy="-5920.93" r="898.12" gradientUnits="userSpaceOnUse" spreadMethod="pad" id="fill3" gradientTransform="matrix(-0.0657555 -0.00987913 0.0199802 -0.131511 1975.24 -139.771)"><stop offset="0" stop-color="#EE352C"/><stop offset="1" stop-color="#A91D22"/></radialGradient><clipPath id="clip4"><rect x="1378" y="275" width="1526" height="1959"/></clipPath><clipPath id="clip5"><rect x="1378" y="275" width="1526" height="1959"/></clipPath><clipPath id="clip6"><rect x="1378" y="275" width="1526" height="1959"/></clipPath><clipPath id="clip7"><rect x="1076" y="225" width="2130" height="2101"/></clipPath><clipPath id="clip8"><rect x="1078" y="225" width="2128" height="2101"/></clipPath><clipPath id="clip9"><rect x="1078" y="225" width="8187" height="2101"/></clipPath></defs><g clip-path="url(#clip0)" transform="translate(-145 -21)"><path d="M2681.06 882.482 2401.2 973.847 2157.73 1081.31 2089.61 1099.3C2072.24 1115.8 2054.08 1132.53 2034.41 1149.43 2012.84 1168.06 1992.77 1184.96 1977.31 1197.25 1960.18 1210.8 1934.79 1236.18 1921.88 1252.21 1902.61 1276.32 1887.38 1301.93 1880.86 1321.6 1869.21 1357.14 1874.92 1393.06 1897.36 1426.29 1926.15 1468.58 1983.48 1511.72 2050.27 1541.14 2084.3 1556.13 2141.64 1575.39 2184.78 1586.18 2256.47 1604.35 2395.25 1624.02 2471.62 1627.02 2487.08 1627.66 2507.79 1627.66 2508.65 1627.02 2510.33 1625.98 2522.21 1603.31 2535.93 1575.22 2582.89 1479.41 2616.75 1389.5 2635.15 1312.72 2646.16 1266.17 2654.81 1204.22 2660.53 1130.8 2662.03 1110.26 2662.66 1041.51 2661.39 1018.26 2659.48 980.192 2656.09 949.334 2650.84 919.051 2649.97 914.61 2649.79 910.572 2650.2 910.399 2651.07 909.765 2653.61 908.9 2688.04 898.979L2681.06 882.482 2681.06 882.482 2681.06 882.482 2681.06 882.482ZM2617.15 919.917C2619.69 919.917 2626.44 984.864 2628.17 1025.88 2628.58 1034.52 2628.39 1040.24 2627.94 1040.24 2626.27 1040.24 2592.17 1020.17 2567.9 1004.94 2546.72 991.614 2506.58 964.965 2500.23 959.889 2498.1 958.389 2498.32 958.217 2515.69 952.275 2545.05 942.354 2614.84 919.917 2617.15 919.917ZM2474.62 966.869C2476.53 966.869 2481.38 969.637 2493.02 976.789 2536.57 1004.07 2595.81 1037.07 2621.19 1048.08 2629.03 1051.48 2629.84 1050.22 2611.9 1062.44 2573.43 1088.69 2525.38 1114.48 2466.61 1140.49 2456.23 1145.16 2447.57 1148.74 2447.35 1148.74 2446.94 1148.74 2448.21 1143.43 2449.88 1137.08 2464.07 1084.42 2472.09 1031.13 2472.49 988.383 2472.72 967.215 2472.72 967.215 2474.62 966.58 2474.16 966.869 2474.39 966.869 2474.62 966.869L2474.62 966.869ZM2445.21 978.058C2446.47 979.327 2445.61 1026.68 2443.94 1039.6 2440.13 1070.46 2434.19 1099.25 2424.5 1131.61 2422.2 1139.44 2420.06 1145.96 2419.65 1146.43 2418.79 1147.46 2389.84 1119.15 2380.32 1108.13 2363.82 1089.09 2350.9 1070.05 2341.38 1051.42 2336.54 1041.91 2328.92 1023.28 2329.56 1022.64 2332.91 1020.39 2444.34 977.251 2445.21 978.058L2445.21 978.058ZM2306.89 1032.45C2307.12 1032.45 2307.29 1032.45 2307.52 1032.68 2307.93 1033.08 2309.43 1036.49 2310.7 1040.29 2317.45 1058.69 2332.67 1085.75 2345.82 1103.11 2360.19 1122.14 2379.05 1142.44 2394.68 1155.77 2399.75 1159.98 2404.42 1164.02 2405.06 1164.65 2406.33 1165.92 2406.74 1165.69 2372.3 1178.85 2332.33 1194.07 2288.78 1209.3 2238.82 1225.4 2226.88 1229.26 2215 1233.12 2203.06 1237.04 2201.17 1237.68 2201.79 1236.64 2207.28 1227.93 2232.02 1189.23 2269.68 1113.26 2290.86 1059.56 2294.43 1050.28 2298.07 1040.93 2298.69 1038.85 2299.57 1035.91 2300.6 1034.82 2303.37 1033.38 2304.76 1032.85 2306.26 1032.45 2306.89 1032.45L2306.89 1032.45ZM2264.55 1049.98C2265.19 1050.39 2254.4 1073.06 2243.84 1093.77 2223.31 1133.74 2200.93 1173.08 2170.88 1220.9 2165.81 1229.14 2160.96 1236.75 2160.32 1237.62 2159.29 1239.12 2158.82 1238.66 2155.48 1232.14 2148.27 1217.96 2142.39 1199.78 2139.22 1183.05 2136.04 1166.56 2136.67 1137.77 2140.25 1120.01 2143.02 1106.91 2142.79 1107.09 2149.13 1103.91 2176.13 1090.19 2263.74 1049.12 2264.55 1049.98L2264.55 1049.98ZM2629.44 1064.81 2629.44 1073.69C2629.44 1120.87 2624.36 1185.59 2616.98 1232.78 2615.71 1241.03 2614.67 1247.77 2614.44 1248 2614.44 1248 2608.32 1246.33 2601.12 1244.19 2569.4 1234.28 2534.9 1219.68 2503.81 1202.55 2483.27 1191.36 2453.46 1172.96 2454.32 1172.09 2454.55 1171.86 2463.43 1167.25 2473.76 1161.71 2515.23 1140.14 2554.97 1116.9 2589.47 1093.83 2602.38 1085.17 2621.83 1071.21 2626.03 1067.41L2629.44 1064.81 2629.44 1064.81ZM2104.83 1127.39C2105.7 1127.39 2105.47 1129.06 2104.2 1136.68 2103.33 1142.16 2102.3 1152.31 2101.89 1159.29 2100.22 1190.15 2105.3 1213.05 2120.52 1244.31 2124.73 1252.96 2128.14 1260.18 2127.9 1260.4 2126.4 1261.68 1986.42 1302.68 1942.41 1314.73 1929.32 1318.31 1917.89 1321.49 1917.03 1321.72 1915.53 1322.12 1915.36 1321.95 1915.99 1318.31 1920.83 1287.22 1944.54 1246.61 1977.53 1212.36 1999.51 1189.51 2017.11 1176.19 2047.15 1159.06 2068.72 1146.77 2101.95 1128.37 2104.49 1127.56 2104.43 1127.39 2104.66 1127.39 2104.83 1127.39L2104.83 1127.39ZM2434.83 1186.4C2435.06 1186.17 2440.13 1188.93 2446.24 1192.51 2491.52 1218.76 2554.57 1243.04 2608.27 1255.55L2613.12 1256.6 2606.37 1260.4C2578.22 1276.03 2485.82 1314.56 2391.28 1349.87 2377.55 1354.94 2363.99 1360.02 2361.45 1361.05 2358.92 1362.1 2356.61 1362.72 2356.61 1362.55 2356.61 1362.33 2360.42 1354.94 2365.27 1345.83 2391.68 1296.34 2418.32 1236.06 2431.89 1194.18 2433.56 1190.21 2434.59 1186.63 2434.83 1186.4L2434.83 1186.4ZM2401.2 1197.42C2401.42 1197.65 2399.7 1202.09 2397.62 1207.16 2379.22 1251.81 2355.11 1300.43 2324.19 1355 2316.35 1368.96 2309.84 1380.15 2309.6 1380.15 2309.37 1380.15 2303.02 1376.34 2295.41 1371.66 2250.59 1344.15 2210.8 1310.36 2184.78 1277.53L2180.97 1272.86 2200.24 1267.56C2269.23 1248.75 2327.77 1228.45 2385.97 1203.47 2394.22 1200.18 2400.97 1197.42 2401.2 1197.42ZM2610.17 1270.38C2610.17 1270.38 2610.4 1270.61 2610.17 1270.38 2610.4 1275.23 2599.61 1318.83 2590.73 1350.33 2583.35 1376.74 2577.01 1397.5 2565.35 1434.08 2560.28 1450.17 2555.83 1463.5 2555.61 1463.5 2555.38 1463.5 2554.11 1463.26 2552.84 1462.86 2490.02 1451.44 2433.73 1435.58 2380.9 1414.41 2366.07 1408.47 2344.96 1398.95 2343.69 1397.91 2343.29 1397.5 2355.98 1391.56 2372.01 1384.59 2468.28 1342.48 2568.07 1294.66 2602.33 1274.19 2606.37 1271.65 2609.54 1270.38 2610.17 1270.38L2610.17 1270.38ZM2127.73 1286.88C2128.14 1287.28 2101.31 1325.99 2063.66 1378.71 2050.56 1397.11 2035.33 1418.68 2029.62 1426.7 2023.91 1434.72 2015.26 1447.4 2010.35 1455.01L2001.47 1468.75 1991.96 1460.73C1980.76 1451.44 1961.27 1431.54 1952.61 1420.53 1934.45 1397.91 1922.16 1373.98 1917.32 1352.23 1915.01 1342.07 1915.01 1337.01 1917.08 1336.37 1920.26 1335.51 1976.73 1322.18 2029.62 1309.95 2059.03 1303.2 2093.07 1295.13 2105.36 1292.19 2117.52 1289.24 2127.5 1286.88 2127.73 1286.88L2127.73 1286.88ZM2154.79 1297.26 2161.54 1304.87C2191.99 1338.9 2223.08 1364.11 2260.74 1386.09 2267.49 1389.89 2272.57 1393.3 2272.17 1393.47 2270.67 1394.51 2141.46 1440.42 2081.59 1461.13 2047.96 1472.95 2020.28 1482.47 2020.05 1482.47 2019.81 1482.47 2017.91 1481.21 2015.84 1479.71L2012.03 1476.94 2018.14 1468.05C2038.04 1439.27 2062.96 1407.77 2117.35 1342.2L2154.79 1297.26 2154.79 1297.26ZM2323.56 1418.04C2323.79 1417.81 2333.08 1421.21 2344.49 1425.42 2372.01 1435.81 2393.76 1442.33 2423 1449.77 2458.93 1458.88 2511.02 1467.76 2541.65 1470.3 2546.32 1470.7 2548.86 1471.17 2548 1471.8 2546.5 1472.67 2515.41 1482.99 2492.56 1490.2 2456.16 1501.62 2345.13 1534.39 2254.58 1560.4 2237.84 1565.24 2223.49 1569.28 2222.62 1569.51 2220.49 1569.92 2213.5 1568.01 2213.5 1567.2 2213.5 1566.8 2218.58 1560.23 2224.69 1553.02 2255.15 1516.62 2285.37 1476.02 2310.59 1437.54 2317.67 1426.92 2323.56 1418.28 2323.56 1418.04L2323.56 1418.04ZM2286.36 1419.09C2286.59 1419.31 2271.53 1443.43 2245.34 1484.84 2234.15 1502.37 2221.64 1522.27 2217.19 1529.25 2212.99 1536 2206.64 1546.61 2203.01 1552.5L2196.9 1563.29 2193.72 1562.41C2186.11 1560.29 2132.58 1541.48 2118.39 1535.76 2100.86 1528.79 2082.63 1520.31 2069.13 1513.16 2052.23 1504.05 2031.06 1490.54 2032.74 1490.09 2033.14 1489.85 2062.15 1482.07 2097.05 1472.55 2189.68 1447.4 2241.08 1432.81 2274.7 1422.2 2280.87 1420.35 2286.12 1418.9 2286.36 1419.09L2286.36 1419.09ZM2549.67 1480.86 2549.89 1480.86C2550.76 1482.99 2516.5 1578.17 2503.98 1608.21 2501.21 1614.97 2500.18 1616.69 2498.68 1616.47 2495.1 1616.23 2445.38 1609.25 2415.1 1604.81 2362.44 1596.79 2274.01 1581.34 2251.8 1576.26L2246.73 1575.22 2278.22 1568.01C2345.94 1552.78 2378.47 1544.53 2411.46 1534.39 2453.11 1521.69 2494.41 1505.83 2536.06 1486.4 2542.69 1483.4 2548.22 1481.08 2549.67 1480.86L2549.67 1480.86Z" fill="url(#fill1)" transform="matrix(1 0 0 1.00002 -89.1675 21)"/><path d="M2392.54 230.117C2387.87 229.482 2312.77 256.534 2264.38 276.203 2199.03 302.852 2148.27 328.231 2116.95 350.207 2105.3 358.456 2090.7 373.048 2088.4 378.758 2087.53 380.893 2087.12 383.431 2087.12 385.969L2115.45 412.848 2182.94 434.42 2343.46 463.203 2527.05 494.698 2528.96 478.834C2528.32 478.834 2527.92 478.603 2527.29 478.603L2503.17 474.797 2498.32 466.145C2473.36 422.134 2445.9 367.569 2429.81 330.769 2417.35 302.217 2405.47 269.224 2398.95 245.517 2395.25 231.213 2394.86 230.348 2392.54 230.117L2392.54 230.117 2392.54 230.117 2392.54 230.117ZM2389.14 240.903 2389.37 240.903C2389.6 241.134 2390.41 247.017 2391.28 253.997 2394.86 283.586 2401.42 312.138 2411.81 343.055 2419.65 366.3 2419.65 365.031 2410.54 362.32 2388.97 356.379 2292.3 339.709 2222.27 329.961 2211.08 328.462 2201.56 327.02 2201.56 326.789 2200.7 325.924 2252.09 299.103 2274.76 288.489 2303.71 275.165 2383.2 242 2389.14 240.903L2389.14 240.903ZM2185.24 335.672 2193.49 338.44C2238.31 353.668 2351.07 375.24 2413.25 380.317 2420.23 380.951 2426.17 381.586 2426.34 381.586 2426.57 381.816 2420.63 384.989 2413.02 388.564 2382.97 403.561 2349.98 421.962 2327.14 436.151 2320.39 440.362 2314.21 443.765 2313.4 443.765 2312.54 443.765 2308.1 442.899 2303.49 442.265L2295 440.996 2273.84 420.288C2236.64 384.123 2207.39 356.206 2196.2 345.651L2185.24 335.672ZM2176.77 342.248 2206.58 379.451C2222.85 399.986 2239.34 420.058 2242.98 424.499 2246.56 428.94 2249.56 432.517 2249.33 432.748 2248.46 433.382 2206.18 425.134 2183.74 420.058 2160.67 414.751 2151.15 412.213 2137.02 407.772L2125.37 403.965 2125.37 401.024C2125.6 386.834 2143.54 365.723 2174 344.15L2176.77 342.248 2176.77 342.248ZM2430.21 393.006C2431.08 393.006 2432.11 394.909 2434.65 400.62 2441.86 416.482 2464.24 459.223 2469.78 467.472 2471.45 470.24 2474.45 470.413 2444.63 465.568 2372.93 453.916 2349.86 450.11 2349.86 449.705 2349.86 449.475 2352 448.033 2354.7 446.533 2376.91 434.247 2399.35 418.616 2419.19 401.888 2424.04 397.851 2428.48 394.044 2429.34 393.41 2429.51 393.006 2429.98 392.775 2430.21 393.006L2430.21 393.006Z" fill="url(#fill2)" transform="matrix(1 0 0 1.00002 -89.1675 21)"/><path d="M2089.84 375.874C2089.84 375.874 2085.17 383.258 2089.61 394.275 2092.37 401.024 2100.39 409.272 2109.51 417.751 2109.51 417.751 2203.64 509.579 2215.06 522.673 2267.09 582.718 2289.7 641.956 2291.83 723.631 2293.1 776.062 2283.18 822.206 2258.44 875.734 2214.42 971.771 2121.56 1077.73 1978.4 1195.34L1999.34 1188.37C2012.89 1178.21 2031.3 1167.42 2074.44 1143.71 2174.05 1089.15 2286.19 1039.02 2423.63 987.403 2621.59 912.937 2947.14 825.782 3132.46 797.461L3151.73 794.519 3148.79 789.847C3131.89 763.603 3120.24 747.337 3106.28 729.975 3065.67 679.621 3016.41 638.783 2956.08 604.983 2873.14 558.665 2765.9 522.5 2630.13 495.621 2604.52 490.544 2548.28 480.796 2502.6 473.816 2405.69 458.819 2343.12 448.437 2274.12 436.612 2249.38 432.401 2212.35 426.056 2187.83 420.75 2175.14 417.981 2150.8 412.271 2131.78 405.754 2116.49 399.754 2094.51 393.871 2089.84 375.874L2089.84 375.874ZM2144.41 428.768C2144.63 428.537 2147.98 429.806 2152.43 431.305 2160.43 434.075 2170.82 437.247 2183.11 440.592 2192.4 443.13 2201.68 445.611 2211.03 447.975 2223.71 451.148 2234.27 454.089 2234.5 454.089 2236 455.589 2257.35 523.885 2264.55 550.129 2267.32 560.05 2269.4 568.529 2269.23 568.529 2268.99 568.76 2266.68 565.125 2263.91 560.28 2239.17 516.732 2200.07 472.489 2154.79 436.959 2148.85 432.748 2144.41 428.94 2144.41 428.768L2144.41 428.768ZM2248.46 457.492C2249.5 457.492 2254.17 458.127 2259.88 459.396 2295.82 467.414 2360.36 479.699 2401.6 486.678 2408.58 487.717 2414.05 488.986 2414.05 489.448 2414.05 489.851 2411.52 491.351 2408.35 493.025 2401.37 496.602 2373.22 513.329 2363.94 519.674 2340.46 535.305 2319.29 552.262 2304.07 567.49 2297.94 573.604 2292.64 578.681 2292.64 578.681 2292.64 578.681 2291.38 575.104 2290.33 570.662 2282.72 541.245 2266.86 497.697 2252.5 467.009 2250.19 462.165 2248.28 457.724 2248.28 457.261 2248.28 457.724 2248.28 457.492 2248.46 457.492L2248.46 457.492ZM2431.65 492.446C2432.92 492.851 2435.06 500.062 2439.27 515.924 2447.11 546.61 2450.69 580.872 2449.41 612.827 2449.02 621.71 2448.55 629.958 2448.15 630.997L2447.52 633.13 2436.5 629.554C2413.88 622.344 2377.08 611.559 2345.54 602.675 2327.53 597.83 2312.95 593.389 2312.95 592.928 2312.95 591.658 2339.19 565.414 2350.38 555.493 2371.78 536.631 2429.75 491.755 2431.65 492.446L2431.65 492.446ZM2446.24 494.524C2446.88 493.891 2533.8 508.888 2573.37 516.501 2602.79 522.211 2645.53 531.094 2648.01 532.132 2649.28 532.537 2644.84 535.074 2630.64 541.419 2574.81 566.568 2533.34 589.236 2492.1 616.75 2481.31 623.959 2472.2 629.843 2472.03 629.843 2471.86 629.843 2471.62 623.728 2471.62 616.288 2471.62 576.085 2463.61 535.477 2448.78 501.216 2447.35 497.928 2446.07 494.756 2446.24 494.524ZM2671.08 538.938C2671.72 539.573 2668.94 556.705 2666.41 566.856 2658.8 598.349 2638.26 645.128 2613.12 689.138 2608.67 696.982 2604.63 703.327 2604.23 703.5 2603.82 703.731 2598.11 700.558 2591.55 696.752 2567.02 682.39 2539.11 668.834 2508.59 656.145 2500.12 652.568 2492.74 649.57 2492.51 649.165 2491.01 647.897 2559.13 602.849 2595.11 581.276 2623.73 563.914 2670.27 538.131 2671.08 538.938L2671.08 538.938ZM2687.18 541.477C2689.08 541.477 2727.56 552.032 2747.68 557.973 2797.4 572.797 2854.5 593.734 2891.71 610.635L2907.17 617.615 2896.38 620.153C2805.42 641.09 2727.61 665.201 2652.51 695.656 2646.4 698.193 2640.85 700.328 2640.46 700.328 2640.05 700.328 2642.13 695.483 2644.9 689.541 2667.5 641.552 2682.1 591.37 2685.73 548.687 2685.9 544.649 2686.54 541.477 2687.18 541.477L2687.18 541.477ZM2303.89 629.496C2304.52 628.863 2333.94 635.841 2349.81 640.283 2373.91 647.031 2425.07 664.162 2425.07 665.431 2425.07 665.662 2419.37 670.507 2412.62 676.448 2384.93 699.52 2358.28 723.804 2326.33 754.72 2316.81 763.834 2308.79 771.217 2308.33 771.217 2307.93 771.217 2307.7 769.948 2307.93 768.276 2312.77 732.744 2311.73 687.062 2304.99 640.744 2304.35 634.745 2303.71 629.67 2303.89 629.496ZM2921.76 630.131C2922.17 630.535 2908.21 652.568 2899.32 665.028 2886.64 683.197 2868.01 707.308 2825.9 760.2 2803.69 788.117 2778.72 819.611 2770.47 830.223 2761.98 840.779 2755.01 849.662 2754.83 849.662 2754.6 849.662 2751.9 845.855 2748.89 841.183 2725.18 805.652 2696.86 774.563 2663.24 746.645 2656.89 741.339 2649.92 735.628 2647.6 733.955 2645.3 732.283 2643.4 730.552 2643.4 730.38 2643.4 729.745 2679.33 714.286 2706.61 703.327 2754.43 683.889 2819.55 660.587 2868.41 645.59 2894.08 637.515 2921.36 629.67 2921.76 630.131L2921.76 630.131ZM2938.02 634.342C2938.89 634.111 2943.96 636.649 2950.09 640.283 3001.47 669.7 3051.83 707.538 3091.57 746.473 3102.76 757.49 3130.51 786.214 3130.04 786.444 3130.04 786.444 3120.3 787.31 3108.87 788.117 3019.82 794.866 2905.84 813.727 2796.24 840.145 2788.86 841.817 2782.29 843.318 2781.89 843.318 2781.49 843.318 2789.73 835.069 2800.06 825.148 2864.37 763.2 2893.78 724.035 2928.45 654.242 2933.41 643.86 2937.63 634.976 2938.02 634.342 2937.85 634.342 2937.85 634.342 2938.02 634.342L2938.02 634.342ZM2467.01 682.562C2469.95 683.197 2497.46 696.117 2518.17 706.442 2537.21 715.96 2565.76 731.187 2567.26 732.456 2567.49 732.687 2557.33 737.935 2544.82 744.108 2505.08 764.007 2470.99 782.811 2435.45 804.383 2425.31 810.498 2416.83 815.573 2416.65 815.573 2415.79 815.573 2416.02 814.708 2421.73 804.383 2440.77 769.717 2455.99 728.245 2464.65 687.811 2465.51 684.697 2466.37 682.562 2467.01 682.562L2467.01 682.562ZM2439.5 687.639C2440.13 688.273 2432.92 714.286 2428.48 728.476 2419.82 755.355 2405.24 788.983 2391.04 814.362 2387.64 820.303 2382.57 828.955 2379.85 833.8L2374.55 842.28 2362.72 830.858C2348.99 817.534 2337.75 809.286 2323.39 801.903 2317.67 798.962 2313.23 796.423 2313.23 795.962 2313.23 794.289 2349.4 761.469 2377.08 737.821 2396.98 720.631 2438.86 687.004 2439.5 687.639L2439.5 687.639ZM2607.63 756.797 2618.01 763.545C2641.72 779.004 2669.64 799.481 2690.98 817.477 2703.03 827.397 2726.28 848.335 2730.95 853.411L2733.5 856.18 2716.36 861.025C2619.45 887.904 2544.59 911.784 2457.26 943.969 2447.52 947.546 2439.27 950.545 2438.63 950.545 2437.36 950.545 2436.33 951.583 2458.07 931.511 2513.91 880.117 2563.4 823.417 2600.19 768.218L2607.63 756.797 2607.63 756.797ZM2563.45 767.814C2563.85 768.218 2534.9 809.055 2517.53 832.127 2496.83 859.64 2460.03 905.728 2434.59 935.778 2424.04 948.238 2414.93 958.62 2414.52 958.85 2413.88 959.081 2413.66 955.91 2413.66 951.006 2413.66 925.396 2407.08 898.114 2395.66 874.868 2390.81 865.121 2389.95 862.813 2390.98 861.775 2395.03 858.199 2456.57 823.072 2495.51 802.133 2521.75 788.117 2562.82 767.41 2563.45 767.814L2563.45 767.814ZM2296.1 833.396C2296.74 833.396 2301.58 835.935 2307.12 838.875 2320.67 846.259 2332.73 854.507 2343.52 863.39 2343.92 863.794 2338.44 868.236 2331.23 873.541 2311.15 887.904 2280.7 910.976 2262.94 925.166 2244.31 939.989 2243.67 940.393 2245.81 937.221 2259.77 915.879 2266.74 903.824 2274.12 888.366 2280.7 874.637 2287.22 858.314 2291.89 844.182 2293.57 838.069 2295.64 833.396 2296.1 833.396L2296.1 833.396ZM2367.33 889.231C2368.38 889 2369.64 890.903 2375.35 899.383 2387.41 917.378 2396.7 941.49 2399.06 960.927L2399.47 965.138 2370.51 976.328C2318.65 996.4 2270.9 1016.3 2238.54 1031.13 2229.43 1035.34 2213.56 1042.95 2203.23 1048.03 2192.85 1053.33 2184.44 1057.31 2184.44 1057.14 2184.44 1056.97 2191.01 1052.06 2199.03 1046.12 2262.3 1000.21 2317.04 949.853 2358.11 899.555 2362.55 894.249 2366.59 889.404 2366.99 889.173L2367.33 889.231 2367.33 889.231ZM2334.58 897.248C2335.44 898.114 2311.34 925.396 2294.83 942.066 2254 983.711 2213.62 1016.3 2163.5 1048.03 2157.15 1052.06 2151.44 1055.64 2150.8 1056.05 2149.3 1056.91 2151.21 1054.78 2173.25 1030.9 2187.21 1015.89 2197.76 1003.21 2209.81 987.518 2217.83 977.136 2219.33 975.693 2230.98 967.446 2262.02 945.065 2333.71 896.441 2334.58 897.248Z" fill="url(#fill3)" transform="matrix(1 0 -2.73801e-17 1.00002 -89.1675 21)"/><path d="M1418.59 1773.09C1414.74 1773.09 1410.78 1773.5 1406.93 1773.5 1328.17 1777.66 1274.95 1812.43 1243.93 1880.14 1217.37 1941.37 1220.21 2021.45 1244.23 2083.09 1272.11 2143.3 1317.12 2175.13 1392.33 2187.09 1408.25 2189.73 1418.89 2198.45 1449.71 2234.44L1487.62 2278.84 1556.35 2278.84 1510.63 2232.71C1485.39 2207.47 1464.92 2185.47 1464.92 2183.45 1464.92 2181.52 1474.55 2177.26 1486.31 2173.71 1524.93 2162.06 1556.96 2132.25 1579.36 2086.53 1597.51 2049.84 1600.15 2038.48 1602.68 1992.87 1609.57 1857.03 1537.9 1772.08 1418.59 1773.09L1418.59 1773.09 1418.59 1773.09ZM1478.91 2128.4C1445.45 2144.62 1396.9 2147.86 1365.17 2136.21 1332.42 2124.14 1300.59 2090.08 1286.4 2051.56 1270.49 2009.39 1272.82 1931.64 1290.96 1896.67 1320.16 1840.91 1358.78 1815.27 1415.14 1815.27 1498.77 1815.27 1546.32 1866.46 1552.6 1962.76 1557.37 2043.15 1530.5 2103.36 1478.91 2128.4L1478.91 2128.4ZM2666.98 1889.16C2638.09 1889.16 2616.09 1900.82 2601.19 1923.83L2589.53 1942.08 2589.53 1894.74 2539.65 1894.74 2539.65 2178.78 2589.53 2178.78 2589.53 2087.95C2589.53 2004.93 2590.54 1995.2 2602.2 1972.49 2618.22 1941.37 2645.69 1925.76 2672.25 1933.26L2690.09 1938.43 2690.09 1889.16 2666.98 1889.16 2666.98 1889.16 2666.98 1889.16ZM2373.61 1886.53C2363.88 1886.53 2353.44 1887.85 2343.09 1890.08 2276.29 1907.51 2238.68 1971.48 2240.91 2037.27 2240.91 2092.31 2251.66 2119.89 2278.22 2148.78 2332.65 2193.48 2381.92 2197.03 2448.42 2173 2459.77 2168.14 2472.14 2162.56 2472.14 2162.56L2472.14 2117.86 2448.42 2130.12C2394.59 2153.54 2354.14 2153.54 2321.6 2125.97 2300.92 2104.88 2291.8 2079.64 2287.54 2050.75L2488.87 2050.75 2488.87 2012.43C2488.97 1934.58 2442.03 1885.31 2373.61 1886.53L2373.61 1886.53 2373.61 1886.53ZM2292.21 2011.11C2292.21 2011.11 2299.61 1962.46 2327.18 1943.3 2340.46 1933.97 2355.67 1929.41 2370.57 1929.41 2385.47 1929.41 2400.37 1934.28 2412.74 1943.6 2437.98 1963.06 2442.24 2010.71 2442.24 2010.71L2292.11 2010.71 2292.21 2011.11 2292.21 2011.11 2292.21 2011.11ZM1088.63 1959.92C1034.49 1927.18 1010.47 1903.46 1013.41 1875.58 1021.82 1798.44 1117.11 1809.08 1169.93 1838.28L1170.33 1786.37C1170.33 1786.37 1141.14 1773.7 1099.37 1773.09 1035.2 1772.08 993.741 1793.17 974.278 1835.94 945.691 1899.1 971.034 1946.85 1062.37 1999.96 1113.66 2029.77 1136.37 2055.72 1136.37 2084 1136.37 2142.39 1066.02 2162.77 993.437 2126.07 978.536 2118.67 965.864 2112.38 965.155 2112.38 962.519 2128.91 963.938 2168.54 963.938 2168.54 963.938 2168.54 986.24 2177.87 1019.69 2184.36 1102.62 2200.88 1178.14 2161.95 1185.33 2098.8 1191.42 2039.5 1169.93 2008.38 1088.63 1959.92L1088.63 1959.92 1088.63 1959.92ZM3108.75 1885.92C3099.02 1885.92 3088.68 1887.24 3077.94 1889.57 3011.23 1907.01 2973.62 1970.97 2976.16 2036.76 2976.16 2091.81 2986.8 2119.07 3013.36 2147.86 3067.8 2192.57 3117.06 2196.22 3183.87 2172.19 3195.12 2167.33 3207.49 2161.85 3207.49 2161.85L3207.49 2117.05 3183.87 2129.41C3129.94 2152.73 3089.49 2152.73 3057.15 2125.16 3036.37 2104.07 3027.35 2079.13 3023.09 2049.94L3224.01 2049.94 3224.01 2011.62C3224.01 1933.97 3176.98 1884.6 3108.65 1885.92L3108.75 1885.92 3108.75 1885.92ZM3027.35 2010.4C3027.35 2010.4 3034.85 1961.75 3062.43 1942.28 3075.71 1932.86 3090.91 1928.29 3105.81 1928.29 3120.71 1928.29 3135.62 1933.16 3147.98 1942.59 3173.22 1962.05 3177.48 2010 3177.48 2010L3027.45 2010 3027.35 2010.4 3027.35 2010.4ZM2112.27 1960.53C2058.14 1927.79 2034.22 1904.07 2037.16 1876.19 2045.57 1799.05 2140.86 1809.69 2193.67 1838.88L2194.08 1786.98C2194.08 1786.98 2164.88 1774.31 2123.12 1773.7 2058.95 1772.69 2017.49 1793.77 1998.03 1836.55 1969.54 1899.71 1995.09 1947.45 2086.22 2000.57 2137.41 2030.38 2160.12 2055.92 2160.12 2084.2 2160.12 2142.59 2089.77 2163.27 2017.19 2126.27 2002.28 2118.87 1989.71 2112.69 1988.9 2112.69 1986.27 2129.21 1987.69 2168.85 1987.69 2168.85 1987.69 2168.85 2009.69 2177.87 2043.04 2184.66 2126.06 2201.29 2201.58 2162.36 2208.68 2099.21 2214.76 2040.31 2193.37 2009.19 2112.27 1960.53L2112.27 1960.53 2112.27 1960.53ZM3402.12 1888.56C3373.23 1888.56 3350.93 1900.21 3336.33 1923.33L3324.67 1941.47 3324.67 1894.23 3274.8 1894.23 3274.8 2178.17 3324.67 2178.17 3324.67 2087.24C3324.67 2004.22 3325.69 1994.49 3337.34 1971.88 3353.36 1940.76 3380.83 1925.15 3407.39 1932.65L3425.23 1937.82 3425.23 1888.56 3402.12 1888.56 3402.12 1888.56ZM1715.3 1958.91 1715.3 1778.06 1664.92 1778.06 1664.92 2178.68 1876.58 2178.68 1876.58 2131.34 1715.3 2131.34 1715.3 1958.91 1715.3 1958.91ZM2879.25 2015.27 2837.79 2123.23 2797.85 2014.66 2757.3 1894.33 2705.8 1894.33C2739.15 1989.02 2775.54 2085.22 2812.14 2178.58 2828.06 2178.99 2843.97 2178.58 2859.78 2178.58L2915.84 2037.88 2972.91 1894.33 2923.65 1894.33C2923.65 1894.44 2901.95 1951.41 2879.25 2015.27L2879.25 2015.27 2879.25 2015.27ZM1831.27 1668.78C1839.38 1668.78 1846.17 1666.15 1851.75 1660.57 1857.22 1655.1 1860.16 1648.61 1860.16 1640.5 1860.16 1632.39 1857.22 1625.6 1851.75 1620.43 1846.17 1615.26 1839.79 1612.62 1831.68 1612.62 1823.47 1612.62 1816.78 1615.26 1811.2 1620.73 1805.62 1626.21 1803.09 1633 1803.09 1640.81 1803.09 1649.02 1805.73 1655.71 1811.2 1660.88 1816.37 1666.15 1823.16 1668.68 1831.27 1668.78L1831.27 1668.78 1831.27 1668.78ZM1813.43 1622.66C1818.3 1617.79 1824.18 1615.56 1831.68 1615.56 1838.77 1615.56 1844.65 1617.79 1849.52 1622.66 1854.38 1627.53 1856.92 1633.41 1856.92 1640.5 1856.92 1647.6 1854.28 1653.78 1849.52 1658.65 1844.65 1663.51 1838.77 1665.74 1831.68 1665.74 1824.48 1665.74 1818.7 1663.51 1813.84 1658.65 1808.97 1653.78 1806.44 1647.6 1806.44 1640.5 1806.33 1633.41 1808.56 1627.53 1813.43 1622.66ZM1825.39 1643.14 1828.64 1643.14C1830.97 1643.14 1833.2 1645.37 1835.12 1649.62L1839.08 1658.44 1845.16 1658.44 1840.29 1648.71C1838.37 1644.86 1836.44 1642.53 1834.11 1641.92 1836.95 1641.21 1839.28 1640.3 1840.9 1638.37 1842.52 1636.75 1843.13 1634.42 1843.13 1631.88 1843.13 1628.94 1842.22 1626.71 1840.19 1625.09 1837.96 1623.27 1834.41 1622.25 1829.75 1622.25L1819.41 1622.25 1819.41 1658.55 1824.58 1658.55 1824.58 1643.34 1825.39 1643.14 1825.39 1643.14ZM1825.39 1626.31 1829.95 1626.31C1833.2 1626.31 1835.53 1627.02 1836.75 1627.93 1837.96 1628.94 1838.27 1630.16 1838.27 1632.49 1838.27 1636.65 1835.63 1638.68 1830.87 1638.68L1825.29 1638.68 1825.39 1626.31 1825.39 1626.31 1825.39 1626.31ZM993.944 1639.89C993.944 1627.22 993.539 1617.9 993.235 1612.32L993.539 1612.32C994.856 1618.81 996.478 1623.77 997.695 1626.92L1046.05 1734.88 1054.16 1734.88 1102.51 1626.01C1103.83 1623.07 1105.15 1618.6 1106.67 1612.32L1107.08 1612.32C1106.06 1623.07 1105.76 1632.49 1105.76 1639.89L1105.76 1735.18 1122.28 1735.18 1122.28 1593.57 1101.5 1593.57 1057.2 1692.2C1055.58 1696.05 1053.25 1701.93 1050.41 1709.64L1049.7 1709.64C1048.69 1705.78 1046.46 1700.01 1043.21 1692.81L999.824 1593.26 977.826 1593.26 977.826 1734.88 993.741 1734.88 993.741 1639.89 993.944 1639.89 993.944 1639.89ZM1158.67 1640.2 1172.97 1640.2 1172.97 1728.39 1158.67 1728.39 1158.67 1640.2ZM1165.77 1607.86C1168.71 1607.86 1171.24 1606.85 1173.17 1604.92 1175.1 1602.99 1176.41 1600.46 1176.41 1597.52 1176.41 1594.58 1175.4 1592.05 1173.17 1590.12 1171.14 1588.19 1168.61 1587.18 1165.67 1587.18 1162.73 1587.18 1160.19 1588.19 1158.27 1590.12 1156.34 1592.05 1155.02 1594.68 1155.02 1597.52 1155.02 1600.76 1156.04 1602.99 1158.27 1604.92 1160.5 1606.85 1162.83 1607.86 1165.77 1607.86L1165.77 1607.86 1165.77 1607.86ZM1274.64 1730.32 1274.64 1714.81C1266.84 1720.69 1258.42 1723.52 1249.7 1723.52 1239.26 1723.52 1230.85 1719.98 1224.67 1713.08 1218.58 1706.29 1215.24 1696.86 1215.24 1685.21 1215.24 1672.94 1218.48 1663.21 1225.27 1655.81 1231.76 1648.71 1240.18 1645.06 1250.52 1645.06 1258.93 1645.06 1267.04 1647.7 1274.54 1652.87L1274.54 1636.34C1267.75 1632.8 1259.94 1631.17 1251.23 1631.17 1235.01 1631.17 1222.33 1636.34 1212.91 1646.38 1203.58 1656.42 1198.72 1670.1 1198.72 1686.52 1198.72 1701.12 1202.87 1713.49 1211.69 1722.92 1220.81 1732.55 1232.47 1737.51 1246.66 1737.51 1257.81 1737.21 1266.84 1734.88 1274.64 1730.32L1274.64 1730.32ZM1315.49 1683.28C1315.49 1671.62 1318.13 1662.19 1322.89 1655.81 1327.46 1649.93 1332.93 1646.99 1339.42 1646.99 1344.89 1646.99 1348.85 1648 1351.68 1650.23L1351.68 1633.3C1349.45 1632.29 1346.21 1631.99 1342.05 1631.99 1336.17 1631.99 1331 1633.91 1326.44 1637.56 1321.58 1641.41 1317.72 1647.19 1315.49 1654.69L1315.09 1654.69 1315.09 1634.11 1298.87 1634.11 1298.87 1735.18 1315.09 1735.18 1315.09 1683.28 1315.49 1683.28ZM1408.55 1737.21C1423.76 1737.21 1436.03 1732.34 1445.15 1722.61 1454.17 1712.98 1458.73 1699.9 1458.73 1683.69 1458.73 1667.16 1454.58 1654.49 1446.06 1645.06 1437.65 1635.64 1425.99 1631.07 1410.78 1631.07 1395.58 1631.07 1383.31 1635.64 1374.19 1644.35 1364.46 1653.98 1359.29 1667.67 1359.29 1685.21 1359.29 1700.41 1363.44 1713.08 1372.26 1722.51 1381.39 1732.34 1393.35 1737.21 1408.55 1737.21L1408.55 1737.21 1408.55 1737.21ZM1385.54 1654.79C1391.73 1648.31 1399.84 1645.06 1409.87 1645.06 1420.31 1645.06 1428.12 1648.31 1433.9 1654.79 1439.78 1661.59 1442.61 1671.32 1442.61 1684.29 1442.61 1696.66 1439.98 1706.29 1434.5 1712.88 1429.03 1719.67 1420.92 1723.32 1410.18 1723.32 1399.73 1723.32 1391.73 1719.67 1385.54 1712.88 1379.46 1706.09 1376.52 1696.66 1376.52 1684.29 1375.81 1672.03 1379.05 1661.99 1385.54 1654.79L1385.54 1654.79ZM1529.79 1728.39C1535.98 1722.92 1539.22 1716.12 1539.22 1707.61 1539.22 1700.21 1536.59 1694.03 1531.82 1689.16 1527.87 1685.31 1521.79 1681.76 1512.97 1678.11 1505.16 1674.87 1500.29 1671.93 1497.76 1669.7 1495.12 1667.06 1493.6 1663.82 1493.6 1659.25 1493.6 1655.1 1495.23 1651.85 1498.47 1649.22 1501.71 1646.58 1505.87 1645.37 1511.45 1645.37 1520.16 1645.37 1527.66 1647.7 1534.46 1652.56L1534.46 1636.34C1527.87 1633.1 1520.77 1631.48 1512.66 1631.48 1502.22 1631.48 1493.5 1634.32 1487.01 1639.89 1480.22 1645.37 1476.98 1652.56 1476.98 1660.98 1476.98 1668.38 1479.21 1674.56 1483.47 1679.12 1487.01 1682.98 1493.1 1686.93 1501.61 1690.48 1509.72 1694.03 1515.2 1697.27 1518.14 1699.9 1521.08 1702.54 1522.29 1705.78 1522.29 1709.54 1522.29 1718.96 1515.8 1723.83 1503.23 1723.83 1493.5 1723.83 1484.78 1720.58 1476.98 1714.2L1476.98 1731.63C1484.08 1735.89 1492.49 1737.82 1501.92 1737.82 1513.78 1737.21 1523.2 1734.27 1529.79 1728.39L1529.79 1728.39 1529.79 1728.39ZM1606.94 1631.17C1591.73 1631.17 1579.47 1635.74 1570.34 1644.45 1560.71 1654.08 1555.44 1667.77 1555.44 1685.31 1555.44 1700.51 1559.6 1713.18 1568.42 1722.61 1577.54 1732.34 1589.5 1737.21 1604.71 1737.21 1620.32 1737.21 1632.18 1732.34 1641.3 1722.51 1650.43 1712.88 1654.99 1699.8 1654.99 1683.58 1654.99 1667.06 1650.73 1654.39 1642.32 1644.96 1633.6 1635.64 1621.84 1631.07 1606.94 1631.17L1606.94 1631.17 1606.94 1631.17ZM1638.36 1684.29C1638.36 1696.66 1635.73 1706.29 1630.25 1712.88 1624.78 1719.67 1616.67 1723.32 1605.92 1723.32 1595.48 1723.32 1587.47 1719.67 1581.29 1712.88 1575.21 1706.09 1572.27 1696.66 1572.27 1684.29 1572.27 1671.32 1575.51 1661.28 1582 1654.49 1588.08 1648 1596.19 1644.76 1606.33 1644.76 1616.36 1644.76 1624.47 1648 1630.25 1654.49 1635.42 1661.59 1638.36 1671.32 1638.36 1684.29L1638.36 1684.29 1638.36 1684.29ZM1682.15 1734.88 1698.37 1734.88 1698.37 1647.29 1722.09 1647.29 1722.09 1633.71 1698.37 1633.71 1698.37 1618.1C1698.37 1603.91 1703.85 1596.81 1715.2 1596.81 1719.05 1596.81 1722.91 1597.82 1725.85 1599.45L1725.85 1584.85C1722.91 1583.53 1719.05 1583.23 1714.19 1583.23 1705.47 1583.23 1698.27 1585.86 1692.49 1591.34 1685.7 1597.82 1682.05 1606.24 1682.05 1617.59L1682.05 1634.22 1664.92 1634.22 1664.92 1647.8 1682.05 1647.8 1682.05 1734.98 1682.15 1734.88ZM1748.65 1707.3C1748.65 1727.07 1757.37 1737.11 1775.21 1737.11 1781.7 1737.11 1786.57 1736.09 1790.42 1733.76L1790.42 1719.87C1787.48 1722.1 1783.93 1723.12 1779.98 1723.12 1774.5 1723.12 1770.65 1721.8 1768.32 1718.86 1765.99 1715.92 1764.67 1711.06 1764.67 1704.26L1764.67 1647.29 1790.32 1647.29 1790.32 1633.71 1764.77 1633.71 1764.77 1603.91C1759.2 1605.83 1753.72 1607.45 1748.55 1609.08L1748.55 1633.71 1731.12 1633.71 1731.12 1647.29 1748.55 1647.29 1748.65 1707.3 1748.65 1707.3ZM3488.39 1893.73C3482.91 1888.56 3476.43 1885.92 3468.32 1885.92 3460.1 1885.92 3453.41 1888.56 3447.84 1894.13 3442.36 1899.61 3439.73 1906.4 3439.73 1914.2 3439.73 1922.31 3442.36 1929.11 3447.84 1934.28 3453.31 1939.44 3460.1 1942.08 3468.32 1942.08 3476.43 1942.08 3483.22 1939.44 3488.79 1933.97 3494.27 1928.4 3497.21 1922.01 3497.21 1913.9 3496.8 1905.69 3493.86 1898.9 3488.39 1893.73L3488.39 1893.73ZM3485.75 1932.04C3480.89 1936.91 3475.01 1939.14 3467.91 1939.14 3460.81 1939.14 3454.94 1936.91 3450.07 1932.04 3445.2 1927.18 3442.67 1921 3442.67 1913.8 3442.67 1906.7 3444.9 1900.82 3449.77 1895.96 3454.63 1891.09 3460.41 1888.86 3467.91 1888.86 3475.01 1888.86 3480.89 1891.09 3485.75 1895.96 3490.62 1900.82 3493.15 1906.7 3493.15 1913.8 3493.15 1921.3 3490.92 1927.08 3485.75 1932.04ZM3471.15 1915.42C3474.09 1914.71 3476.32 1913.49 3477.95 1911.87 3479.57 1910.15 3480.18 1907.92 3480.18 1905.28 3480.18 1902.34 3479.26 1900.11 3477.24 1898.49 3475.01 1896.67 3471.36 1895.65 3466.8 1895.65L3456.46 1895.65 3456.46 1931.94 3461.63 1931.94 3461.63 1916.74 3464.87 1916.74C3467.1 1916.74 3469.33 1918.97 3471.36 1923.23L3475.21 1931.94 3481.39 1931.94 3476.53 1922.21C3475.01 1917.95 3473.08 1916.03 3471.15 1915.42L3471.15 1915.42 3471.15 1915.42ZM3467.61 1912.18 3462.03 1912.18 3462.03 1899.91 3466.59 1899.91C3469.84 1899.91 3472.07 1900.52 3473.38 1901.53 3474.7 1902.55 3475.01 1903.76 3475.01 1906.09 3475.01 1910.25 3472.47 1912.18 3467.61 1912.18L3467.61 1912.18 3467.61 1912.18ZM2563.17 1629.55 2567.73 1629.55 2567.73 1593.26 2579.7 1593.26 2579.7 1588.7 2551.11 1588.7 2551.11 1593.26 2563.07 1593.26 2563.17 1629.55 2563.17 1629.55ZM2590.75 1602.28C2590.75 1598.74 2590.75 1595.9 2590.44 1594.17 2590.75 1596.1 2591.45 1597.42 2591.66 1598.33L2605.65 1629.45 2607.88 1629.45 2621.87 1598.03C2622.27 1597.01 2622.58 1595.8 2623.18 1594.17 2622.88 1597.42 2622.88 1600.05 2622.88 1601.98L2622.88 1629.45 2627.75 1629.45 2627.75 1588.6 2621.87 1588.6 2609.19 1616.88C2608.89 1617.9 2607.88 1619.82 2607.27 1622.05L2606.86 1622.05C2606.56 1620.73 2605.95 1619.42 2605.04 1617.19L2592.37 1588.6 2585.78 1588.6 2585.78 1629.45 2590.34 1629.45 2590.34 1602.18 2590.75 1602.28 2590.75 1602.28Z" fill="#231F1F" transform="matrix(1 0 0 1.00002 -89.1675 21)"/><path d="M877.875 153.071 3543.94 153.071 3543.94 2314.31 877.875 2314.31Z" fill="#FFFFFF" transform="matrix(1 0 0 1.00002 -89.1675 21)"/><g clip-path="url(#clip4)"><g clip-path="url(#clip5)"><g clip-path="url(#clip6)"><path d="M454.94 1209.3C396.962 1163.69 335.092 1119.98 292.823 1058.38 203.855 949.773 135.376 824.051 88.5569 691.909 60.2449 605.978 50.5586 513.853 14.0437 431.257-24.1038 371.249 20.614 305.695 86.3369 286.631 115.575 280.997 167.022 253.392 104.923 273.142 49.2346 313.978 43.8689 236.04 100.961 231.102 139.924 225.936 154.27 194.05 140.93 165.35 99.0893 138.053 242.351 108.108 170.257 67.3921 95.2068-13.6117 275.282-29.2011 230.843 62.803 220.221 133.543 356.715 49.8117 325.017 131.512 357.222 170.755 445.573 140.461 443.353 195.483 490.251 198.709 506.348 238.14 550.33 241.176 595.983 261.784 678.659 278 694.169 329.408 648.914 365.225 544.147 255.412 539.09 354.574 552.778 501.091 549.284 652.019 602.872 791.538 628.217 876.007 689.699 942.496 745.188 1008.3 798.308 1072.73 870.253 1118.11 943.592 1156.3 1007.91 1186.63 1077.25 1206.73 1147.36 1219.37 1175.78 1197.63 1225.98 1116.78 1270.31 1150.86 1272.45 1189.21 1182.32 1230.96 1266.09 1226.72 1315.31 1211.87 1349.42 1264.75 1389.94 1217.03 1427.26 1261.25 1545.09 1188.8 1518.53 1279.18 1482.6 1302.36 1430.22 1288.35 1394.25 1320.25 1334.95 1290.61 1287.74 1346.73 1222.06 1339.65 1149.15 1352.71 1074.95 1357.97 1001.03 1358.07 879.74 1348.51 755.89 1344.47 640.512 1302.24 575.496 1283.34 512.072 1246.32 454.94 1209.3L454.94 1209.3ZM557.367 1253.71C620.83 1281.12 682.9 1310.05 752.466 1318.8 862.826 1334.13 976.801 1357.77 1087.55 1336.23 1037.43 1313.6 985.592 1345.02 935.657 1320.05 875.778 1332.92 811.499 1316.74 750.594 1308.77 681.377 1277.94 606.645 1256.74 541.817 1216.69 460.774 1187.1 583.699 1254.64 605.59 1260.13 656.221 1288.86 549.901 1245.39 534.889 1233.45 492.471 1209.65 487.065 1214.63 530.698 1238.78 539.479 1243.92 548.159 1249.32 557.367 1253.71L557.367 1253.71ZM436.583 1168.35C498.105 1191.14 436.315 1125.11 408.162 1128.92 395.678 1107.26 360.448 1093.57 385.295 1081.94 340.618 1097.46 338.477 1022.95 317.482 1033.62 270.195 1018.68 299.085 965.791 242.739 933.287 237.603 899.062 186.783 869.396 170.606 817.79 163.448 791.349 113.166 715.483 144.046 786.093 170.327 854.066 216.568 912.322 255.064 970.46 284.929 1025.83 320.24 1083.74 374.644 1118.27 393.001 1135.88 410.69 1162.83 436.583 1168.35L436.583 1168.35ZM259.425 973.804C261.554 964.506 270.664 993.904 259.425 973.804L259.425 973.804ZM510.28 1195.65C523.888 1189.55 490.679 1187.96 510.28 1195.65L510.28 1195.65ZM543.639 1207.83C540.185 1191.02 528.398 1217.24 543.639 1207.83L543.639 1207.83ZM585.451 1225.24C605.321 1206.31 554.769 1213.3 585.451 1225.24L585.451 1225.24ZM657.076 1265.17C669.172 1247.33 618.382 1258.45 657.076 1265.17L657.076 1265.17ZM519.538 1169.3C550.409 1149.3 479.599 1169.01 519.538 1169.3L519.538 1169.3ZM550.877 1184.92C549.981 1174.37 539.717 1189.66 550.877 1184.92L550.877 1184.92ZM707.548 1282.72C732.745 1298.63 854.664 1317.56 778.328 1289.25 765.527 1291.94 636.778 1252.82 707.548 1282.72L707.548 1282.72ZM458.833 1088.99C456.384 1078.41 419.71 1077.28 458.833 1088.99L458.833 1088.99ZM531.743 1131.53C550.757 1118.27 492.351 1121.29 531.743 1131.53L531.743 1131.53ZM593.106 1169.13C620.363 1158.86 548.936 1158.82 593.106 1169.13L593.106 1169.13ZM429.117 1056.67C458.674 1079.34 548.348 1059.59 474.383 1043.15 440.745 1025.21 364.917 1012.93 416.604 1053.95L429.117 1056.67 429.117 1056.67ZM634.678 1182.12C647.002 1161.16 583.032 1170.14 634.678 1182.12L634.678 1182.12ZM572.22 1132.5C644.473 1152.91 511.445 1086.77 554.381 1124.95L563.908 1129.27 572.22 1132.5 572.22 1132.5ZM697.444 1204.87C765.885 1205.53 635.613 1195.42 697.444 1204.87L697.444 1204.87ZM402.796 1017.08C400.108 1004.33 385.923 1018.14 402.796 1017.08L402.796 1017.08ZM813.211 1269.81C815.033 1246.79 790.881 1286.96 813.211 1269.81L813.211 1269.81ZM519.608 1088.59C515.447 1076.46 498.225 1088.08 519.608 1088.59L519.608 1088.59ZM409.287 1009.08C448.57 1006.71 355.47 991.773 409.287 1009.08L409.287 1009.08ZM278.588 924.607C273.69 905.752 235.851 890.74 278.588 924.607L278.588 924.607ZM621.687 1142.34C614.499 1134.13 618.302 1144.12 621.687 1142.34L621.687 1142.34ZM835.211 1273.39C834.554 1260.83 823.584 1278.13 835.211 1273.39L835.211 1273.39ZM602.792 1122.83C606.645 1106.65 569.273 1117.91 602.792 1122.83L602.792 1122.83ZM443.702 1021.99C472.949 1018.87 396.843 1002.23 443.702 1021.99L443.702 1021.99ZM712.804 1189.21C758.379 1171.15 668.396 1180.41 712.804 1189.21L712.804 1189.21ZM572.848 1094.2C625.34 1100.96 510.36 1058.46 561.299 1090.39L572.848 1094.2 572.848 1094.2ZM755.302 1206.38C804.341 1177.1 788.164 1275.02 838.487 1214.67 888.102 1178.43 795.631 1259.47 856.764 1221.13 901.014 1191.53 966.338 1235.16 1007.6 1249.36 1037.27 1247.91 1066.13 1275.02 1096.57 1258.52 1155.13 1242.74 982.018 1235.13 1027.39 1207.16 973.805 1222.76 934.224 1188.58 907.853 1154.24 847.735 1140.35 778.249 1109.63 748.224 1056.41 735.979 1036.46 765.885 1059.23 737.652 1026.57 701.446 994.371 683.367 957.777 659.058 918.624 630.009 903.144 626.585 857.53 623.667 917.111 623.907 879.5 588.596 854.185 579.965 864.688 579.806 828.481 617.765 846.639 591.205 819.85 585.49 782.32 566.665 743.207 561.021 700.819 552.241 680.401 559.777 636.659 531.007 682.89 520.544 731.768 527.542 622.851 543.839 658.739 565.221 622.114 536.133 626.425 534.969 631.482 548.896 600.571 543.799 556.7 531.315 573.425 538.742 540.642 543.062 452.8 520.235 468.389 534.072 434.095 546.487 311.518 486.359 358.267 462.019 358.616 419.829 367.098 399.919 377.012 462.407 411.467 393.618 389.457 368.143 383.971 364.838 415.856 339.642 402.089 308.144 402.398 358.467 408.619 283.645 453.845 254.835 436.274 217.344 454.164 287.149 498.882 255.571 512.719 259.464 533.525 198.171 505.183 202.959 553.325 166.595 537.995 197.982 610.407 216.18 585.908 278.05 602.672 259.733 640.82 261.286 677.096 251.211 698.211 211.511 627.441 252.456 630.706 220.142 578.243 216.727 611.732 189.889 636.111 183.667 637.863 258.33 670.794 211.471 687.05 252.694 693.432 253.9 729.519 262.302 752.345 287.069 778.159 281.972 723.835 311.648 754.875 292.864 727.219 212.247 676.976 277.154 693.083 276.806 665.279 265.408 642.84 285.317 643.379 305.039 607.719 264.671 731.341 309.079 686.005 321.364 680.64 324.441 650.307 346.531 688.882 378.606 720.46 358.118 743.317 312.853 714.387 320.936 741.882 373.399 751.678 363.524 794.655 373.977 832.454 388.6 818.526 401.353 816.347 411.347 853.06 417.032 826.072 417.5 808.571 463.263 818.377 452.531 845.435 466.877 864.339 498.414 878.565 421.731 767.855 475.866 831.05 532.828 882.497 497.249 903.96 446.121 895.717 478.474 893.109 488.887 939.47 529.374 937.837 566.277 955.408 591.284 1022.84 527.661 994.759 505.612 974.849 427.485 950.311 491.306 988.15 550.18 1015.45 596.998 1031.74 653.811 1066.01 694.448 1095.02 712.019 1128.26 727.418 1134.84 693.243 1151.16 624.454 1121.8 675.543 1112.83 643.657 1107.03 607.81 1090.89 638.331 1130.59 664.304 1152.3 730.295 1149.99 742.162 1152.45 732.127 1174.54 714.905 1176.29 742.55 1178 711.71 1194.45 752.466 1197.01 755.302 1206.38L755.302 1206.38ZM692.228 1028.24C673.443 1008.61 668.584 971.863 688.883 1003.82 699.305 1008.02 722.212 1063.91 692.228 1028.24L692.228 1028.24ZM897.669 1158.75C909.376 1157.97 898.017 1167.64 897.669 1158.75L897.669 1158.75ZM662.602 980.106C661.855 950.431 669.361 1003 662.602 980.106L662.602 980.106ZM642.184 952.65C618.541 907.036 671.93 965.562 642.184 952.65L642.184 952.65ZM394.703 781.862C408.59 778.159 401.552 805.575 394.703 781.862L394.703 781.862ZM591.672 888.6C600.184 856.594 601.667 915.438 591.672 888.6L591.672 888.6ZM452.531 791.847C442.736 774.197 473.029 808.422 452.531 791.847L452.531 791.847ZM571.912 830.114C549.553 780.03 587.78 802.738 576.89 838.317L571.912 830.114 571.912 830.114ZM366.013 692.804C356.017 676.359 339.493 628.137 344.819 613.403 349.596 637.396 395.798 716.607 367.446 646.225 336.147 587.232 404.897 665.349 411.975 680.092 415.28 694.716 392.642 676.09 407.962 710.425 380.01 671.342 391.477 732.008 366.013 692.804L366.013 692.804ZM302.39 648.943C304.998 610.716 316.935 675.154 302.39 648.943L302.39 648.943ZM331.011 658.819C344.659 629.969 354.146 699.027 331.011 658.819L331.011 658.819ZM262.142 605.549C238.459 581.976 221.307 560.284 263.267 590.926 279.404 591.542 227.34 541.578 267.159 575.057 309 582.682 287.806 643.697 262.142 605.549L262.142 605.549ZM298.308 604.613C312.076 590.965 305.615 618.033 298.308 604.613L298.308 604.613ZM320.587 611.732C299.702 572.648 345.903 628.137 320.587 611.732L320.587 611.732ZM276.338 569.462C207.469 508.13 362.857 601.498 287.577 580.811L276.338 569.462 276.338 569.462ZM473.686 684.094C443.861 666.244 465.752 558.303 475.946 632.109 504.914 622.732 474.343 670.257 495.925 669.788 492.551 699.764 482.864 710.545 473.686 684.094L473.686 684.094ZM546.676 727.259C549.593 694.716 552.818 749.509 546.676 727.259L546.676 727.259ZM534.003 714.696C537.269 700.819 534.312 731.072 534.003 714.696L534.003 714.696ZM289.827 549.314C245.577 488.26 418.425 611.065 318.179 564.794 307.716 562.036 295.083 561.06 289.827 549.314L289.827 549.314ZM430.401 623.827C426.211 572.419 439.739 632.338 430.401 623.827L430.401 623.827ZM537.109 692.298C545.352 663.02 537.736 711.669 537.109 692.298L537.109 692.298ZM296.636 526.019C322.927 520.384 405.593 572.18 329.687 540.802 321.254 531.464 303.246 535.704 296.636 526.019L296.636 526.019ZM522.446 638.56C525.253 585.988 538.164 607.182 522.564 646.106L522.446 638.56 522.446 638.56ZM316.198 507.711C326.929 491.993 287.726 436.662 321.832 487.871 336.576 499.578 364.489 507.473 339.841 512.411 378.606 546.596 330.393 521.668 316.198 507.711L316.198 507.711ZM511.286 622.154C518.683 562.265 517.826 657.225 511.286 622.154L511.286 622.154ZM293.799 452.412C302.001 448.907 298.149 463.332 293.799 452.412L293.799 452.412ZM344.699 482.704C357.8 455.209 368.849 513.346 344.699 482.704L344.699 482.704ZM488.23 562.534C488.111 552.001 490.948 577.894 488.23 562.534L488.23 562.534ZM479.907 544.147C459.998 494.989 498.454 570.159 479.907 544.147L479.907 544.147ZM467.693 511.903C464.358 491.605 479.052 537.418 467.693 511.903L467.693 511.903ZM487.603 479.548C473.915 455.477 504.875 373.389 508.339 424.299 493.904 463.959 504.178 486.129 514.202 432.93 532.798 391.089 510.201 515.566 487.603 479.548L487.603 479.548ZM508.06 357.49C514.014 350.173 509.385 366.311 508.06 357.49L508.06 357.49ZM473.885 1030.74C465.791 1023.66 474.93 1035.21 473.885 1030.74L473.885 1030.74ZM544.266 1066.32C583.42 1076.39 583.231 1060.25 547.841 1055.42 528.826 1037.73 468.748 1018.95 522.525 1053.24 526.069 1062.28 537.308 1062.03 544.266 1066.32L544.266 1066.32ZM405.285 973.994C426.828 990.101 486.518 1019.57 436.006 980.146 453.039 960.345 403.414 949.813 419.869 936.552 377.988 910.919 386.809 913.218 416.176 914.034 365.853 891.516 423.443 893.228 420.725 881.681 401.322 877.868 324.321 847.455 369.626 884.17 323.584 860.716 358.656 892.92 344.739 889.535 297.641 876.703 386.659 925.393 337.272 913.298 364.26 934.681 409.953 968.13 348.661 935.926 340.618 947.554 392.532 965.173 405.285 973.994L405.285 973.994ZM478.893 1016.3C568.377 1045.12 434.991 981.032 478.893 1016.3L478.893 1016.3ZM855.709 1244.57C856.874 1226.8 843.493 1259.73 855.709 1244.57L855.709 1244.57ZM894.444 1260.87C915.091 1240.88 895.299 1292.75 928.659 1255.97 929.007 1229.63 927.654 1214.09 890.322 1246.09 880.009 1251.8 875.429 1276.03 894.444 1260.87L894.444 1260.87ZM279.643 874.762C273.302 849.835 235.194 849.945 279.643 874.762L279.643 874.762ZM320.976 901.859C305.615 876.394 266.184 878.804 320.976 901.859L320.976 901.859ZM556.282 1043.75C579.269 1064.17 661.785 1058.73 584.166 1046.29 572.689 1029.3 511.216 1033.37 556.282 1043.75L556.282 1043.75ZM879.7 1243.52C915.05 1213.85 845.445 1256.74 879.7 1243.52L879.7 1243.52ZM953.238 1294.04C953.467 1284.51 937.997 1298.2 953.238 1294.04L953.238 1294.04ZM953.357 1280.7C992.51 1239.24 915.438 1283.15 953.357 1280.7L953.357 1280.7ZM177.913 789.597C144.554 742.002 157.187 720.609 124.992 681.725 118.88 651.979 69.7718 584.544 99.597 655.981 126.894 697.782 134.987 762.49 177.913 789.597L177.913 789.597ZM941.063 1267.52C1013.13 1220.97 911.516 1247.26 941.063 1267.52L941.063 1267.52ZM996.054 1289.06C1032.14 1258.1 973.227 1282.6 996.054 1289.06L996.054 1289.06ZM267.388 822.14C277.702 806.78 240.719 820.159 267.388 822.14L267.388 822.14ZM984.576 1274.36C1019.5 1251.84 976.532 1255.3 978.244 1276.42L984.576 1274.36 984.576 1274.36ZM510.629 975.626C509.424 960.385 492.162 976.91 510.629 975.626L510.629 975.626ZM539.906 992.47C530.579 973.645 525.601 995.426 539.906 992.47L539.906 992.47ZM1040.61 1289.57C1085.37 1257.29 1013.52 1283.37 1031.24 1295.71L1040.61 1289.57 1040.61 1289.57ZM1023.47 1281.28C1059.94 1250.75 985.004 1294.82 1023.47 1281.28L1023.47 1281.28ZM1111.04 1339.57C1135.51 1323.19 1081.29 1334.28 1111.04 1339.57L1111.04 1339.57ZM289.827 811.06C322.609 818.406 420.914 891.825 362.936 816.157 333.231 807.367 351.04 734.765 320.748 747.597 341.085 781.583 337.462 796.008 294.764 774.625 241.147 748.413 264.631 787.577 275.133 798.387 260.818 801.652 294.028 810.791 289.827 811.06L289.827 811.06ZM140.393 693.044C146.256 668.733 86.297 559.428 112.081 638.251 121.369 654.777 120.403 686.075 140.393 693.044L140.393 693.044ZM414.693 862.159C397.778 848.043 413.877 860.138 414.693 862.159L414.693 862.159ZM456.265 871.846C456.265 846.102 410.302 861.383 456.265 871.846L456.265 871.846ZM816.745 1099.05C809.866 1081.48 789.568 1098.67 816.745 1099.05L816.745 1099.05ZM834.046 1111.69C831.479 1101.85 824.052 1113.6 834.046 1111.69L834.046 1111.69ZM976.921 1201.71C990.649 1191.57 959.768 1200.4 976.921 1201.71L976.921 1201.71ZM215.015 712.098C254.327 696.887 172.896 701.247 215.015 712.098L215.015 712.098ZM785.008 1071.18C784.551 1045.74 759.932 1077.51 785.008 1071.18L785.008 1071.18ZM199.495 675.891C224.731 667.38 176.121 670.296 199.495 675.891L199.495 675.891ZM272.754 711.39C272.326 703.038 265.019 714.587 272.754 711.39L272.754 711.39ZM1166.57 1259.51C1199.04 1252.93 1273.04 1276.03 1284.97 1250.91 1245.55 1249.94 1148.61 1223.06 1144.01 1257.29L1152.65 1258.65 1166.57 1259.51 1166.57 1259.51ZM296.049 717.264C296.636 691.48 275.949 716.299 296.049 717.264L296.049 717.264ZM103.409 583.619C94.6593 534.5 70.1202 576.182 103.409 583.619L103.409 583.619ZM149.332 595.166C149.92 579.377 107.292 580.97 149.332 595.166L149.332 595.166ZM175.583 608.078C167.998 601.926 169.67 615.813 175.583 608.078L175.583 608.078ZM340.806 714.039C348.591 706.881 322.38 708.753 340.806 714.039L340.806 714.039ZM158.123 578.989C153.652 541.887 104.883 573.425 158.123 578.989L158.123 578.989ZM63.8983 517.856C62.5744 500.743 54.7198 524.307 63.8983 517.856L63.8983 517.856ZM77.9349 507.283C75.6452 486.975 65.8793 509.842 77.9349 507.283L77.9349 507.283ZM155.325 553.474C188.067 540.642 95.7045 526.875 148.635 551.066L155.325 553.474 155.325 553.474ZM1191.43 1193.47C1212.38 1174.27 1164.82 1187.53 1191.43 1193.47L1191.43 1193.47ZM1316.59 1258.34C1325 1233.53 1295.44 1261.61 1316.59 1258.34L1316.59 1258.34ZM163.249 512.918C166.713 488.887 137.276 517.696 163.249 512.918L163.249 512.918ZM53.0872 439.112C47.174 405.205 47.9902 345.664 104.574 365.774 29.0558 380.785 156.878 459.678 140.741 397.38 172.508 398.943 202.88 378.606 186.195 409.435 248.803 402.557 292.166 348.273 352.633 355.898 399.72 349.636 451.207 344.927 501.958 325.953 543.68 322.956 583.848 278.04 560.991 251.401 504.098 246.583 444.518 253.7 381.642 266.224 311.956 280.688 248.654 308.214 178.341 320.04 109.781 329.258 192.108 345.396 172.467 349.01 136.729 361.413 215.124 369.775 167.838 382.875 138.641 377.321 108.228 367.286 120.712 336.486 55.0682 345.047-2.64085 372.264 49.2346 439.072L53.0872 439.112 53.0872 439.112ZM211.322 358.536C226.683 301.842 293.759 405.205 236.518 366.082 229.709 360.945 218.43 356.784 211.322 358.536L211.322 358.536ZM214.308 331.04C236.518 314.515 226.095 340.338 214.308 331.04L214.308 331.04ZM242.501 331.508C244.532 305.416 307.099 345.315 252.814 340.885L242.501 331.508 242.501 331.508ZM281.077 315.998C295.192 299.503 285.168 330.612 281.077 315.998L281.077 315.998ZM290.962 309.389C314.446 281.196 423.831 291.38 343.763 306.621 322.301 290.444 305.855 316.147 290.962 309.389L290.962 309.389ZM433.746 287.377C430.212 210.336 504.716 314.714 433.746 287.377L433.746 287.377ZM474.273 287.139C489.086 248.334 531.783 271.549 481.152 279.324 482.237 283.486 479.639 299.393 474.273 287.139L474.273 287.139ZM147.272 493.008C191.521 465.901 100.294 469.484 147.272 493.008L147.272 493.008ZM180.013 502.067C195.533 485.581 146.256 495.377 180.013 502.067L180.013 502.067ZM83.5794 433.667C108.855 414.224 53.6347 426.28 83.5794 433.667L83.5794 433.667ZM1390.48 1251.26C1391.21 1228.7 1371.15 1261.4 1390.48 1251.26L1390.48 1251.26ZM1257.68 1160.61C1261.45 1134.68 1240.61 1162.87 1257.68 1160.61L1257.68 1160.61ZM1427 1260.01C1462.35 1260.13 1534.12 1249 1457.21 1249.04 1445.11 1250.91 1386.86 1250.53 1427 1260.01L1427 1260.01ZM208.793 486.159C237.414 484.218 253.551 454.622 203.228 456.294 125.26 448.25 272.017 483.013 193.234 473.059 182.661 480.056 208.166 488.111 208.793 486.159L208.793 486.159ZM233.99 498.921C230.993 480.564 225.12 508.677 233.99 498.921L233.99 498.921ZM263.894 419.202C276.298 403.801 246.702 415.08 263.894 419.202L263.894 419.202ZM168.695 260.111C219.793 242.769 289.638 223.247 313.749 268.672 289.21 239.156 303.833 210.067 327.008 253.272 359.791 296.944 376.197 233.402 354.883 218.738 379.193 248.911 406.798 263.188 371.139 220.649 409.914 174.02 293.56 226.752 267.12 226.204 254.408 231.919 135.764 256.457 168.695 260.111L168.695 260.111ZM198.639 202.8C227.768 180.829 299.394 215.901 253.431 180.939 248.922 176.977 152.797 207.459 198.639 202.8L198.639 202.8ZM304.839 207.19C338.905 208.046 290.146 161.377 330.742 182.532 324.092 160.761 283.456 156.678 263.586 147.968 252.347 167.878 286.443 207.459 304.839 207.19L304.839 207.19ZM217.265 110.786C229.052 94.8083 196.579 118.92 217.265 110.786L217.265 110.786ZM260.668 121.169C315.61 113.902 246.663 97.526 249.579 120.592L260.668 121.169 260.668 121.169ZM179.625 57.7856C140.93 7.27397 252.386 66.2673 213.064 13.3764 179.974-12.9446 148.207 43.0522 179.625 57.7856L179.625 57.7856ZM676.011 325.137C693.751 293.709 602.792 282.749 664.075 314.007 669.709 315.879 668.435 327.307 676.011 325.137L676.011 325.137Z" transform="matrix(1.00014 0 0 1 1379.7 276.462)"/><path d="M315.823 44.5692C311.903 60.0704 309.469 86.0744 308.556 122.575 308.556 129.749 305.327 133.337 298.855 133.337 292.377 133.337 287.871 130.205 285.319 123.968 278.385 107.092 271.815 95.3197 265.554 88.6015 258.163 80.7552 248.338 76.0093 236.085 74.3945 222.914 72.305 190.099 71.2696 137.635 71.2696 125.622 71.2696 117.752 72.5455 114.066 75.0972 111.754 76.7059 110.602 80.1759 110.602 85.4951L110.602 242.548C110.602 247.867 113.949 250.394 120.636 250.178 141.223 249.938 171.03 248.539 210.081 246.012 217.712 245.075 222.864 242.598 225.515 238.548 228.19 234.505 230.79 224.057 233.318 207.175 234.927 197.93 240.369 194.343 249.615 196.439 257.467 198.054 260.838 201.64 259.679 207.175 253.201 238.622 251.106 279.529 253.417 329.916 253.663 335.913 249.855 339.161 241.984 339.623 235.506 340.321 231.463 336.85 229.848 329.219 223.857 300.331 212.682 284.898 196.405 282.919 180.108 280.972 153.574 279.985 116.833 279.985 112.673 279.985 110.602 281.477 110.602 284.485L110.602 440.502C110.602 452.059 114.861 459.93 123.409 464.072 130.128 467.542 144.569 470.667 166.746 473.441 178.086 474.593 183.041 479.579 181.674 488.344 180.275 495.974 170.117 498.982 151.145 497.367 96.3703 492.966 51.1792 493.207 15.5972 498.069 5.6492 499.438 0.693719 495.395 0.693719 485.934 0.693719 479.912 5.6492 476.448 15.5972 475.53 38.2481 472.978 49.5644 453.094 49.5644 415.898L49.5644 119.105C49.5644 103.869 46.8463 92.1393 41.4285 83.9296 35.9862 75.7197 25.8718 68.2557 11.0916 61.562 1.8463 57.4017-1.61761 51.7435 0.693719 44.5692 1.8463 40.1869 3.70152 37.7523 6.22857 37.2962 8.5399 36.5997 14.6788 37.0559 24.5959 38.6892 39.1666 41.0005 73.4974 42.1592 127.57 42.1592 191.375 42.1592 246.483 40.76 292.956 37.9926 308.433 37.0559 316.187 38.3316 316.187 41.7956 316.187 42.7386 316.069 43.6508 315.823 44.5692L315.823 44.5692Z" transform="matrix(1.00014 0 0 1 1379.7 1727.5)"/><path d="M540.66 484.682C540.66 493.927 535.457 497.97 525.059 496.811 493.181 493.804 453.649 494.26 406.504 498.186 397.018 499.123 391.193 498.883 388.981 497.515 386.786 496.115 385.702 492.312 385.702 486.051 385.702 480.516 391.989 475.843 404.581 472.016 417.198 468.213 423.478 456.823 423.478 437.876L423.478 124.115C423.478 105.384 420.76 91.6332 415.342 82.844 409.9 74.061 400.364 67.2441 386.737 62.4058 379.563 59.8541 375.976 56.2669 375.976 51.6442 375.976 44.7103 381.177 39.5083 391.575 36.0443 407.298 30.9594 423.601 23.1132 440.477 12.4689 454.345 4.1419 463.134 0 466.814 0 475.363 0 479.653 5.87385 479.653 17.6709 479.653 16.7587 479.191 28.3153 478.253 52.3408 477.582 75.2136 477.342 97.7475 477.582 119.948L478.95 429.543C478.95 443.651 482.42 453.889 489.354 460.244 496.288 466.598 508.202 470.814 525.059 472.885 535.457 474.038 540.66 477.964 540.66 484.682L540.66 484.682Z" transform="matrix(1.00014 0 0 1 1379.7 1727.5)"/><path d="M854.229 464.238C854.229 469.101 845.391 476.423 827.72 486.241 810.024 496.066 795.867 500.978 785.247 500.978 776.218 500.978 768.254 496.597 761.32 487.806 754.386 479.023 749.517 474.642 746.749 474.642 744.678 474.642 733.702 479.381 713.811 488.842 693.953 498.328 673.946 503.074 653.84 503.074 634.894 503.074 619.047 497.515 606.338 486.439 592.47 474.18 585.536 457.544 585.536 436.501 585.536 396.512 631.306 367.858 722.841 350.526 738.539 347.518 746.533 341.158 746.749 331.457L747.452 309.262C748.845 271.362 732.087 252.416 697.176 252.416 687.234 252.416 677.822 261.297 668.91 279.091 660.028 296.909 647.245 306.488 630.603 307.887 611.657 309.718 602.171 301.748 602.171 283.954 602.171 272.854 616.279 259.928 644.471 245.118 674.062 229.641 702.502 221.887 729.775 221.887 776.68 221.887 799.91 244.205 799.454 288.817L798.055 431.638C797.839 446.665 804.2 454.173 817.125 454.173 819.677 454.173 824.54 453.599 831.689 452.44 838.87 451.288 843.03 450.709 844.189 450.709 850.883 450.709 854.229 455.233 854.229 464.238L854.229 464.238ZM747.452 385.196C747.692 379.415 746.343 375.588 743.452 373.757 740.562 371.908 736.013 371.544 729.775 372.703 674.062 382.644 646.21 400.796 646.21 427.139 646.21 453.716 660.651 467.005 689.545 467.005 701.102 467.005 713.022 464.817 725.251 460.434 739.6 455.331 746.749 449.217 746.749 442.042L747.452 385.196Z" transform="matrix(1.00014 0 0 1 1379.7 1727.5)"/><path d="M1111.99 424.347C1111.99 448.854 1102.54 468.337 1083.73 482.777 1064.89 497.225 1039.18 504.449 1006.58 504.449 984.865 504.449 963.12 502.138 941.406 497.515 922.675 493.347 911.815 489.545 908.807 486.075 906.952 482.827 906.04 467.012 906.04 438.572 906.04 426.319 908.807 419.965 914.367 419.509 919.908 418.806 924.647 421.82 928.573 428.514 945.905 458.801 973.882 473.946 1012.48 473.946 1045.05 473.946 1061.35 462.604 1061.35 439.947 1061.35 430.029 1057.67 421.697 1050.25 415.003 1042.16 407.372 1026.47 398.467 1003.12 388.303 969.358 373.282 946.824 360.111 935.507 348.77 923.248 336.758 917.134 320.578 917.134 300.232 917.134 275.263 926.718 255.86 945.905 241.992 963.699 228.581 987.509 221.887 1017.32 221.887 1036.05 221.887 1053.14 223.379 1068.64 226.393 1085.29 229.401 1093.95 233.087 1094.65 237.487 1096.48 250.418 1100.31 269.149 1106.09 293.661 1106.79 296.645 1103.53 299.08 1096.38 300.929 1088.75 302.543 1083.68 301.268 1081.12 297.125 1062.87 267.294 1039.76 252.39 1011.78 252.39 980.12 252.39 964.279 262.554 964.279 282.9 964.279 294.235 968.562 303.24 977.111 309.933 984.743 315.714 1002.65 324.745 1030.85 336.998 1060.44 349.707 1080.54 361.146 1091.19 371.304 1105.05 384.475 1111.99 402.171 1111.99 424.347L1111.99 424.347Z" transform="matrix(1.00014 0 0 1 1379.7 1727.5)"/><path d="M1519.87 485.021C1519.87 493.107 1514.42 497.397 1503.57 497.854 1487.39 498.094 1466.22 499.246 1440.13 501.317 1427.17 503.869 1417.92 502.26 1412.39 496.479 1375.86 457.186 1344.87 416.039 1319.45 373.042 1317.38 369.356 1314.74 367.501 1311.48 367.501 1307.56 367.501 1300.75 370.971 1291.05 377.905 1280.16 383.902 1274.74 392.469 1274.74 403.546 1274.74 411.416 1274.96 422.733 1275.44 437.543 1275.9 452.324 1279.58 462.025 1286.51 466.648 1291.38 469.902 1302.6 472.429 1320.15 474.284 1331.01 475.677 1336.45 479.721 1336.45 486.414 1336.45 491.74 1335.58 495.036 1333.86 496.288 1332.12 497.564 1327.54 497.854 1320.15 497.157 1297.04 495.086 1257.99 496.239 1202.97 500.621 1189.1 501.78 1181.59 500.041 1180.44 495.419 1179.98 493.81 1179.74 491.498 1179.74 488.485 1179.74 481.335 1186.79 475.893 1200.9 472.213 1213.62 468.959 1219.97 454.055 1219.97 427.478L1219.97 124.455C1219.97 105.508 1218.12 92.336 1214.41 84.9458 1209.33 75.4602 1198.68 68.064 1182.5 62.7448 1174.9 60.2177 1171.07 56.6306 1171.07 52.0079 1171.07 45.2896 1176.51 40.0876 1187.37 36.408 1204.71 30.6266 1221.22 22.6571 1236.94 12.475 1249.65 4.16655 1257.53 0 1260.51 0 1270 0 1274.74 5.99712 1274.74 18.0345 1274.74 16.4012 1274.62 27.8592 1274.38 52.3469 1274.17 69.2227 1274.04 91.8798 1274.04 120.312L1274.74 337.336C1274.74 343.352 1276.36 346.341 1279.58 346.341 1283.05 346.341 1288.37 343.352 1295.55 337.336 1314.74 322.31 1338.31 302.667 1366.25 278.395 1371.82 272.619 1374.59 267.997 1374.59 264.527 1374.59 258.295 1365.22 253.889 1346.52 251.361 1338.43 250.418 1334.6 245.919 1335.05 237.826 1335.75 229.739 1339.8 226.269 1347.19 227.428 1363.85 229.739 1388.12 231.016 1419.99 231.256 1442.19 231.472 1464.27 231.594 1486.23 231.594 1493.38 231.836 1496.97 236.094 1496.97 244.427 1496.97 252.274 1491.31 256.558 1480 257.26 1462.17 257.931 1445.42 261.975 1429.72 269.39 1407.77 279.313 1384.29 296.769 1359.32 321.737 1357.5 323.13 1356.55 324.861 1356.55 326.932 1356.55 330.162 1360.48 337.916 1368.35 350.169 1397.24 394.084 1424.52 427.238 1450.16 449.673 1466.58 463.763 1481.94 470.814 1496.27 470.814 1506.91 470.814 1513.51 471.56 1516.03 473.076 1518.59 474.574 1519.87 478.568 1519.87 485.021L1519.87 485.021Z" transform="matrix(1.00014 0 0 1 1379.7 1727.5)"/></g></g></g><rect x="1219" y="166" width="1962" height="2143" fill="#FFFFFF"/><g clip-path="url(#clip7)"><g clip-path="url(#clip8)"><g clip-path="url(#clip9)"><path d="M1914.01 123.275C1885.89 192.482 1846.96 259.526 1801.54 320.082 1399.28-97.3223 735.324-108.136 320.082 294.13-95.1596 696.395-108.136 1360.35 294.13 1775.59 307.106 1790.73 322.245 1803.71 337.384 1816.68L376.313 1851.29C817.508 2223.27 1479.3 2167.04 1851.29 1725.85 1994.03 1557.16 2080.54 1345.21 2095.67 1124.61 2125.95 862.925 2045.93 525.541 1914.01 123.275ZM488.774 1827.5C458.496 1866.43 402.266 1870.75 363.337 1840.47 324.408 1810.2 320.082 1753.96 350.36 1715.04 380.639 1676.11 436.869 1671.78 475.798 1702.06 512.564 1732.34 519.052 1788.57 488.774 1827.5ZM1907.52 1513.9C1650.15 1857.78 1096.5 1740.99 743.975 1758.29 743.975 1758.29 681.256 1762.62 618.538 1771.27 618.538 1771.27 642.328 1760.45 672.606 1749.64 921.318 1663.13 1038.1 1645.83 1189.5 1567.97 1472.81 1423.07 1756.13 1105.15 1812.36 776.416 1704.22 1092.17 1375.49 1364.68 1077.03 1474.97 871.576 1550.67 501.751 1624.2 501.751 1624.2L486.612 1615.55C235.736 1492.28 227.085 947.271 685.582 772.091 886.715 694.233 1077.03 737.487 1295.47 685.582 1526.88 631.514 1795.06 458.496 1903.19 231.411 2024.3 596.91 2171.37 1163.54 1907.52 1513.9Z" fill="#6DB33F" transform="matrix(1.00025 0 0 1 1088.18 225)"/><path d="M2690.42 1462C2662.31 1444.7 2645.01 1414.42 2647.17 1381.98 2647.17 1330.07 2688.26 1286.82 2740.16 1286.82 2740.16 1286.82 2740.16 1286.82 2742.33 1286.82 2759.63 1286.82 2776.93 1291.14 2792.07 1299.79 2878.58 1360.35 2980.23 1392.79 3084.04 1397.12 3183.52 1397.12 3241.92 1353.86 3241.92 1286.82L3241.92 1282.49C3241.92 1202.47 3133.78 1176.52 3014.83 1139.75 2865.6 1096.5 2696.91 1035.94 2696.91 841.298L2696.91 836.972C2696.91 644.49 2856.95 527.703 3058.08 527.703 3170.55 529.866 3278.68 557.981 3378.17 609.887 3412.77 627.188 3434.4 659.629 3434.4 698.558 3434.4 750.463 3391.14 793.718 3339.24 793.718L3337.08 793.718C3321.94 793.718 3306.8 789.392 3291.66 782.904 3218.13 741.812 3138.1 718.023 3053.76 713.697 2962.92 713.697 2911.02 756.952 2911.02 813.182L2911.02 817.508C2911.02 893.203 3021.32 923.481 3140.27 962.41 3289.5 1007.83 3456.02 1077.03 3456.02 1258.7L3456.02 1263.03C3456.02 1477.14 3289.5 1583.11 3079.71 1583.11 2941.3 1580.95 2805.05 1539.86 2690.42 1462Z" fill="#6DB33F" transform="matrix(1.00025 0 0 1 1088.18 225)"/><path d="M3542.53 646.653C3540.37 583.934 3592.28 532.029 3654.99 529.866L3657.16 529.866C3722.04 529.866 3773.94 581.771 3773.94 646.653L3773.94 646.653 3773.94 715.86C3849.64 609.887 3955.61 525.541 4119.98 525.541 4357.88 525.541 4591.45 713.697 4591.45 1053.24L4591.45 1057.57C4591.45 1394.95 4360.04 1585.27 4119.98 1585.27 3951.29 1585.27 3845.31 1500.93 3773.94 1405.77L3773.94 1764.78C3773.94 1829.66 3722.04 1881.57 3657.16 1881.57L3657.16 1881.57C3594.44 1881.57 3542.53 1829.66 3542.53 1766.94L3542.53 1764.78 3542.53 646.653ZM4357.88 1057.57 4357.88 1053.24C4357.88 856.437 4225.95 728.836 4068.07 728.836 3910.2 728.836 3771.78 860.762 3771.78 1053.24L3771.78 1057.57C3771.78 1252.21 3910.2 1381.98 4068.07 1381.98 4225.95 1381.98 4357.88 1258.7 4357.88 1057.57Z" fill="#6DB33F" transform="matrix(1.00025 0 0 1 1088.18 225)"/><path d="M4682.29 646.653C4680.12 583.934 4732.03 532.029 4794.75 529.866L4796.91 529.866C4861.79 529.866 4913.7 581.771 4913.7 646.653L4913.7 646.653 4913.7 702.884C4924.51 616.375 5067.25 529.866 5168.9 529.866 5227.29 525.541 5279.2 568.795 5283.52 627.188 5283.52 633.677 5283.52 638.002 5283.52 644.49 5283.52 700.721 5244.59 748.301 5190.52 756.952 5024 785.067 4911.53 929.969 4911.53 1131.1L4911.53 1466.32C4911.53 1531.2 4859.63 1580.95 4794.75 1580.95 4732.03 1580.95 4680.12 1531.2 4680.12 1468.49 4680.12 1468.49 4680.12 1468.49 4680.12 1466.32L4682.29 646.653 4682.29 646.653Z" fill="#6DB33F" transform="matrix(1.00025 0 0 1 1088.18 225)"/><path d="M5376.52 648.816C5374.36 586.097 5426.26 534.192 5488.98 532.029L5491.14 532.029C5556.02 532.029 5607.93 583.934 5607.93 648.816L5607.93 648.816 5607.93 1468.49C5607.93 1533.37 5556.02 1583.11 5491.14 1583.11 5426.26 1583.11 5376.52 1531.2 5376.52 1468.49L5376.52 648.816Z" fill="#6DB33F" transform="matrix(1.00025 0 0 1 1088.18 225)"/><path d="M5726.88 648.816C5724.72 586.097 5776.62 534.192 5839.34 532.029L5841.5 532.029C5906.39 532.029 5958.29 583.934 5958.29 648.816L5958.29 648.816 5958.29 696.395C6027.5 588.26 6148.61 525.541 6276.21 529.866 6505.46 529.866 6637.38 683.419 6637.38 919.155L6637.38 1466.32C6639.55 1529.04 6589.8 1578.78 6527.08 1580.95 6524.92 1580.95 6524.92 1580.95 6522.76 1580.95 6460.04 1583.11 6408.14 1531.2 6405.97 1468.49L6405.97 1466.32 6405.97 990.525C6405.97 832.647 6328.12 741.812 6187.54 741.812 6053.45 741.812 5958.29 836.972 5958.29 994.851L5958.29 1468.49C5958.29 1533.37 5906.39 1585.27 5841.5 1585.27 5776.62 1585.27 5724.72 1533.37 5724.72 1468.49L5726.88 648.816 5726.88 648.816Z" fill="#6DB33F" transform="matrix(1.00025 0 0 1 1088.18 225)"/><path d="M7662.51 527.703C7597.63 527.703 7545.73 579.609 7545.73 644.49L7545.73 644.49 7545.73 713.697C7470.03 607.724 7364.06 523.378 7199.69 523.378 6961.79 523.378 6728.22 711.534 6728.22 1051.08L6728.22 1055.41C6728.22 1392.79 6959.63 1583.11 7199.69 1583.11 7368.38 1583.11 7474.36 1498.76 7545.73 1405.77 7534.91 1589.6 7422.45 1684.76 7225.64 1684.76 7117.51 1684.76 7009.37 1658.81 6914.21 1604.74 6901.24 1598.25 6888.26 1596.09 6873.12 1596.09 6819.05 1596.09 6775.8 1637.18 6773.64 1691.25 6773.64 1732.34 6799.59 1771.27 6838.52 1784.24 6961.79 1844.8 7095.88 1875.08 7232.13 1875.08 7415.96 1875.08 7558.7 1831.82 7649.54 1738.83 7733.88 1654.48 7779.3 1526.88 7779.3 1356.02L7779.3 646.653C7781.46 581.771 7729.56 529.866 7664.68 527.703 7664.68 527.703 7662.51 527.703 7662.51 527.703ZM7253.76 1381.98C7093.72 1381.98 6963.95 1256.54 6963.95 1055.41L6963.95 1051.08C6963.95 854.274 7095.88 726.673 7253.76 726.673 7411.64 726.673 7550.05 858.599 7550.05 1051.08L7550.05 1055.41C7552.21 1250.05 7413.8 1381.98 7253.76 1381.98Z" fill="#6DB33F" transform="matrix(1.00025 0 0 1 1088.18 225)"/><path d="M5610.09 250.875C5610.09 315.757 5558.19 367.662 5493.31 367.662 5428.42 367.662 5376.52 315.757 5376.52 250.875 5376.52 185.994 5428.42 134.089 5493.31 134.089L5493.31 134.089C5556.02 131.926 5607.93 183.831 5610.09 246.55 5610.09 248.713 5610.09 248.713 5610.09 250.875Z" fill="#6DB33F" transform="matrix(1.00025 0 0 1 1088.18 225)"/><path d="M8045.31 772.091C7980.43 772.091 7926.36 718.023 7926.36 653.141 7926.36 588.26 7980.43 534.192 8045.31 534.192 8110.2 534.192 8164.26 588.26 8164.26 653.141 8164.26 718.023 8110.2 772.091 8045.31 772.091ZM8045.31 551.493C7989.08 551.493 7943.67 596.91 7943.67 653.141 7943.67 709.372 7989.08 754.789 8045.31 754.789 8101.54 754.789 8146.96 709.372 8146.96 653.141 8146.96 596.91 8103.71 551.493 8047.48 551.493L8045.31 551.493ZM8077.75 720.185 8043.15 666.117 8019.36 666.117 8019.36 720.185 7999.9 720.185 7999.9 583.934 8056.13 583.934C8079.92 581.771 8099.38 601.236 8101.54 625.026L8101.54 625.026C8101.54 644.49 8086.41 661.792 8066.94 666.117L8103.71 720.185 8077.75 720.185ZM8053.96 601.236 8019.36 601.236 8019.36 648.816 8056.13 648.816C8069.1 648.816 8079.92 638.002 8079.92 625.026 8079.92 612.049 8069.1 601.236 8053.96 601.236L8053.96 601.236Z" fill="#6DB33F" transform="matrix(1.00025 0 0 1 1088.18 225)"/><path d="M1851.29 1725.85C1994.03 1557.16 2080.54 1345.21 2095.67 1124.61" fill="#6DB33F" transform="matrix(1.00025 0 0 1 1088.18 225)"/><path d="M1907.52 1513.9C1650.15 1857.78 1096.5 1740.99 743.975 1758.29 743.975 1758.29 681.256 1762.62 618.538 1771.27 618.538 1771.27 642.328 1760.45 672.606 1749.64 921.318 1663.13 1038.1 1645.83 1189.5 1567.97 1472.81 1423.07 1756.13 1105.15 1812.36 776.416 1704.22 1092.17 1375.49 1364.68 1077.03 1474.97 871.576 1550.67 501.751 1624.2 501.751 1624.2L486.612 1615.55C235.736 1492.28 227.085 947.271 685.582 772.091 886.715 694.233 1077.03 737.487 1295.47 685.582 1526.88 631.514 1795.06 458.496 1903.19 231.411 2024.3 596.91 2171.37 1163.54 1907.52 1513.9Z" fill="#FFFFFF" transform="matrix(1.00025 0 0 1 1088.18 225)"/><path d="M488.774 1827.5C458.496 1866.43 402.266 1870.75 363.337 1840.47 324.408 1810.2 320.082 1753.96 350.36 1715.04 380.639 1676.11 436.869 1671.78 475.798 1702.06 512.564 1732.34 519.052 1788.57 488.774 1827.5Z" fill="#FFFFFF" transform="matrix(1.00025 0 0 1 1088.18 225)"/></g></g></g></g></svg>